<mxfile host="Electron" modified="2024-04-08T12:25:40.308Z" agent="Mozilla/5.0 (Macintosh; Intel Mac OS X 10_15_7) AppleWebKit/537.36 (KHTML, like Gecko) draw.io/24.1.0 Chrome/120.0.6099.109 Electron/28.1.0 Safari/537.36" etag="IZbRL5SQ3fMTBaPbbYXZ" version="24.1.0" type="device">
  <diagram name="Page-1" id="QcgAJ3HtMIF1n-znKcrL">
    <mxGraphModel dx="954" dy="674" grid="1" gridSize="10" guides="1" tooltips="1" connect="1" arrows="1" fold="1" page="1" pageScale="1" pageWidth="827" pageHeight="1169" math="0" shadow="0">
      <root>
        <mxCell id="0" />
        <mxCell id="1" parent="0" />
        <mxCell id="5wM1asieof-xQ7kw349Y-10" value="" style="rounded=0;whiteSpace=wrap;html=1;" vertex="1" parent="1">
          <mxGeometry x="250" y="545" width="360" height="335" as="geometry" />
        </mxCell>
        <mxCell id="5wM1asieof-xQ7kw349Y-5" value="" style="rounded=0;whiteSpace=wrap;html=1;fontFamily=Helvetica;fontSize=11;fontColor=default;labelBackgroundColor=default;" vertex="1" parent="1">
          <mxGeometry x="440" y="560" width="160" height="310" as="geometry" />
        </mxCell>
        <mxCell id="5wM1asieof-xQ7kw349Y-1" style="edgeStyle=orthogonalEdgeStyle;curved=1;rounded=0;orthogonalLoop=1;jettySize=auto;html=1;entryX=0;entryY=0.5;entryDx=0;entryDy=0;strokeColor=default;align=center;verticalAlign=middle;fontFamily=Helvetica;fontSize=11;fontColor=default;labelBackgroundColor=default;endArrow=classic;" edge="1" parent="1" source="5wM1asieof-xQ7kw349Y-4" target="5wM1asieof-xQ7kw349Y-7">
          <mxGeometry relative="1" as="geometry" />
        </mxCell>
        <mxCell id="5wM1asieof-xQ7kw349Y-2" style="edgeStyle=orthogonalEdgeStyle;curved=1;rounded=0;orthogonalLoop=1;jettySize=auto;html=1;entryX=0;entryY=0.5;entryDx=0;entryDy=0;strokeColor=default;align=center;verticalAlign=middle;fontFamily=Helvetica;fontSize=11;fontColor=default;labelBackgroundColor=default;endArrow=classic;" edge="1" parent="1" source="5wM1asieof-xQ7kw349Y-4" target="5wM1asieof-xQ7kw349Y-8">
          <mxGeometry relative="1" as="geometry" />
        </mxCell>
        <mxCell id="5wM1asieof-xQ7kw349Y-3" style="edgeStyle=orthogonalEdgeStyle;curved=1;rounded=0;orthogonalLoop=1;jettySize=auto;html=1;entryX=0;entryY=0.5;entryDx=0;entryDy=0;strokeColor=default;align=center;verticalAlign=middle;fontFamily=Helvetica;fontSize=11;fontColor=default;labelBackgroundColor=default;endArrow=classic;" edge="1" parent="1" source="5wM1asieof-xQ7kw349Y-4" target="5wM1asieof-xQ7kw349Y-9">
          <mxGeometry relative="1" as="geometry" />
        </mxCell>
        <mxCell id="5wM1asieof-xQ7kw349Y-4" value="Player" style="shape=umlActor;verticalLabelPosition=bottom;verticalAlign=top;html=1;outlineConnect=0;" vertex="1" parent="1">
          <mxGeometry x="260" y="700" width="30" height="60" as="geometry" />
        </mxCell>
        <mxCell id="5wM1asieof-xQ7kw349Y-6" value="Website" style="text;html=1;align=center;verticalAlign=middle;whiteSpace=wrap;rounded=0;fontFamily=Helvetica;fontSize=11;fontColor=default;labelBackgroundColor=default;strokeColor=default;" vertex="1" parent="1">
          <mxGeometry x="440" y="560" width="160" height="30" as="geometry" />
        </mxCell>
        <mxCell id="5wM1asieof-xQ7kw349Y-7" value="&lt;div&gt;download&lt;/div&gt;&lt;div&gt;game&lt;/div&gt;" style="ellipse;whiteSpace=wrap;html=1;" vertex="1" parent="1">
          <mxGeometry x="460" y="600" width="120" height="80" as="geometry" />
        </mxCell>
        <mxCell id="5wM1asieof-xQ7kw349Y-8" value="&lt;div&gt;browse&lt;/div&gt;&lt;div&gt;wiki&lt;/div&gt;" style="ellipse;whiteSpace=wrap;html=1;" vertex="1" parent="1">
          <mxGeometry x="460" y="690" width="120" height="80" as="geometry" />
        </mxCell>
        <mxCell id="5wM1asieof-xQ7kw349Y-9" value="&lt;div&gt;browse&lt;/div&gt;&lt;div&gt;highscores&lt;/div&gt;" style="ellipse;whiteSpace=wrap;html=1;" vertex="1" parent="1">
          <mxGeometry x="460" y="780" width="120" height="80" as="geometry" />
        </mxCell>
      </root>
    </mxGraphModel>
  </diagram>
</mxfile>
